<svg xmlns="http://www.w3.org/2000/svg" xmlns:xlink="http://www.w3.org/1999/xlink" width="858" height="716" viewBox="0 0 858 716">
    <defs>
        <path id="a" d="M0 29.287V.84h28.448v28.448z"/>
    </defs>
    <g fill="none" fill-rule="evenodd">
        <g opacity=".614">
            <path stroke="#3F83C4" d="M274.09 157.084l-86.049 82.722 86.05-82.722zM113.348 457.414l-56.835-97.761 89.319 25.485 43.818 51.145zM28.25 112.823l1.574.402 34.403 49.516M715.417 666.468l-57.211-26.533M12.316 409.605l13.337-59.11 30.859 9.158"/>
            <path stroke="#3F83C4" d="M56.512 359.653l46.188-51.396 62.37-20.778-19.237 97.659 88.134-40.745-44.317 91.89-41.245-49.274M16.091 288.317l25.542 28.63-13.574 29.515M14.83 239.214l77.84 15.877-9.439-51.372 46.34-96.554 53.188-37.901 16.276-54.935"/>
            <path stroke="#3F83C4" d="M8.04 512.058l121.024 58.159 118.988 60.708 71.56-50-89.523-63.55 38.547-87.684 56.449-89.356 5.466-47.714-10.938-71.417 34.015-24.953-76.535-39.738 33.981-18.012-15.965-72.87M358.719 652.508l19.293-148.679-57.874 77.096z"/>
            <path stroke="#3F83C4" d="M93.664 254.212l92.985-13.437 47.537 102.788M226.772 117.78l47.318 39.304-47.318-39.303zM199.036 138.5l27.736-20.719M528.388 626.748l-70.362-45.173-29.206-129.32-80.48-19.362-80.975-3.2M458.026 580.925l41.712-45.08M716.37 666.468l-57.392-107.014-15.322-51.98-116.594-61.09 26.734 83.318-5.307 71.957 58.153 12.674 51.564-54.023M772.521 614.333l-111.479-54.879M820.012 537.666l-63.678-7.964 20.101-150.992-60.064 77.951 39.078 73.041M715.417 458.187l-71.04 49.287M715.417 456.661L664.92 305.845l-34.475-84.643-47.765-103.97-94.115 13.224-7.446-50.596-104.383-29.307L352.85 197.34l60.45-32.629 25.231 27.997 49.25-61.303"/>
            <path stroke="#3F83C4" d="M560.225 163.102l73.105 59.16-46.98 89.3-42.116 70.153-33.828-48.39-56.456-97.768 45.787-51.718 58.885-20.737-14.388 96.613 85.034-36.47M587.272 311.562l-43.038-51.847M151.813 174.409l-23.653-67.244-23.486-69.382M453.949 235.557l-54.042 39.13-70.134 17.933 36.71 78.007 160.579 75.757-42.371-54.177-29.543-59.747 55.257.865M349.074 432.893l29.93 70.936M5.416 478.507l52.9-21.843M41.633 316.946l51.038-61.854M627.634 392.097l-100.571 54.288M486.108 391.147l58.126-9.432M713.732 456.661l-84.17-63.004 34.19-86.78 82.865 1.173M666.753 302.438l54.271-88.291 6.15-45.489-92.914 50.005M633.33 218.663l29.528-88.873M582.68 116.609l50.65-58.96M840.13 259.752l-113.7-93.478-11.592-70.413 35.578-27.883 43.751 68.219M747.502 308.578l28.033 67.233M145.832 506.454l-56.254 9.758M9.672 556.31l27.866 46.833 50.08 16.667 68.525 34.294-27.857-83.888-40.669-54.005-29.302-59.548"/>
            <path fill="#FEFEFC" d="M229.311 517.375l-101.026 52.842"/>
            <path stroke="#3D81C3" d="M229.311 517.375l-101.026 52.842"/>
            <path stroke="#3F83C4" d="M130.03 571.691l-14.938-113.553M234.427 344.288l95.806-51.773M267.032 254.987L235.448 343.3M58.775 456.558l55.032 1.445M261.005 70.998l-75.732-1.839M365.048 370.522l90.56-38.167"/>
            <g>
                <path stroke="#3F83C4" stroke-dasharray="2" d="M12.775 670.816l25.223-66.6-37.91 6.537"/>
                <path stroke="#3E82C4" stroke-dasharray="2" d="M716.83 666.363l56.15-52.135 50.482 58.168"/>
                <g stroke="#3F83C4">
                    <path d="M35.307 708.923l-.68-1.09"/>
                    <path stroke-dasharray="2.078,2.078" d="M33.217 705.565L14.16 674.97"/>
                    <path d="M13.454 673.835l-.679-1.09 1.05-.74"/>
                    <path stroke-dasharray="1.991,1.991" d="M15.917 670.531l70.064-49.35"/>
                    <path d="M87.026 620.445l1.05-.74.437 1.208"/>
                    <path stroke-dasharray="2.037,2.037" d="M89.404 623.375l12.015 33.237"/>
                    <path d="M101.864 657.843l.437 1.208 1.28-.119"/>
                    <path stroke-dasharray="2,2" d="M106.138 658.694L156.602 654l91.13-23.18 108.924 21.094"/>
                    <path d="M357.916 652.157l1.261.245 1.042-.752"/>
                    <path stroke-dasharray="1.985,1.985" d="M362.289 650.16l94.12-67.844"/>
                    <path d="M457.442 581.571l1.044-.751-1.285-.006"/>
                    <path stroke-dasharray="1.995,1.995" d="M454.637 580.805l-134.04-.51-191.852-10.183-118.459 3.503"/>
                    <path d="M9.007 573.655l-1.285.037"/>
                    <path stroke-dasharray="2" d="M5.875 555.278l82.202-39.172v103.599l40.627-47.556 17.587-65.8 83.48 10.92-39.662-81.092-74.005 20.381 118.323-112.27-177.455 15.26L12.775 409.5l46 47.058-1.803-93.829M5.875 500.745l82.202 14.17"/>
                    <path stroke-dasharray="2" d="M11.873 514.915l48.279-58.357 86.14-71.526-104.2-69.064 61.067-7.817 43.132 75.489M227.096 514.915L113.807 457.31M157.496 651.972l72.275-133.203M246.797 627.772l-15.419-107.505M144.645 506.349l-82.878-48.346M16.55 288.212l76.58-33.225-83.63-72.22 55.186-20.131-49.397 75.597 68.402-34.619 68.581-29.311-58.149 78.491 68.538 34.05 24.448-44.543-32.803-67.998 8.355 110.829M67.61 161.138l60.117-53.176-95.983 5.157V74.936l94.27 31.055-69.042-91.767"/>
                    <path stroke-dasharray="2" d="M31.744 73.55l73.39-37.048 76.559 30.623 45.539 49.47 33.773-45.597 33.786-6.228-19.16 91.636-8.6 98.581-79.922-14.316 137.658 99.559-56.45-85.243 61.916 37.529 22.486-96.369 46.828 78.645 56.06 57.562 89.086 49.255-15.846 64.61 187.029 10.337-55.124 102.793-131.905-112.374-28.65 87.48-120.734-30.73 76.144 75.439 93.34 22.388-47.527-64.898 52.834-7.058-124.974-77.447 55.87-60.048-118.52-22.245 61.365 81.985-47.571 50.014M527.394 446.219l-95.242 6.743M422.538 688.824l35.948-107.355M233.103 517.27l145.368-13.546-110.153-74.137-75.706 4.667-44.972 72.095"/>
                    <path stroke-dasharray="2" d="M231.378 516.106l4.07-170.402 86.94-5.474 7.33 2.32 35.33 25.673 34.5-91.657M365.048 370.522l-95.8 57.59M238.227 346.357l138.958 156.3M233.103 514.915l115.695-82.128M366.943 372.508l-17.41 57.079M181.928 70.079l17.567 68.316-69.466-30.433M199.495 138.395l-44.066 34.102M188.5 238.661l28.1-86.626 56.868 4.944M235.447 341.944L216.6 150.442M319.294 220.488L193.17 239.7M319.294 221.886l-52.617 32.66M351.772 195.347l-41.017-58.02 103.691-23.886-61.728 82.706 86.271-3.544 15.882 42.326 1.557 95.987 88.266-71.306-104.418-67.007 59.921-8.869-9.552-53.611 70.038 32.122-8.932-113.218 82.037 8.515 82.088 37.76-29.7-82.158"/>
                    <path stroke-dasharray="2" d="M550.856 47.625l32.284 69.502 79.546 12.557-27.966-71.713M714.095 96.703l-50.01 33.647 64.27 37.024 22.52-99.501 1.982-.89M793.926 136.091l-66.294 32.461"/>
                    <path stroke-dasharray="2" d="M664.084 131.028l57.398 83.013-138.343-96.915-21.957 46.274M501.16 183.734l44.21 76.69M454.871 234.93l178.918-12.773L510.865 333.22l76.867-21.763 77.646-5.719-35.358 87.814 3.769-171.395"/>
                    <path stroke-dasharray="2" d="M512.047 334.91l114.76 56.132-39.075-78.246M628.093 393.551l-81.582-11.888M628.828 396.149l-74.712 135.336 90-24.116-14.096-111.22M659.437 562.49l-.772 76.567-49.097-23.14M657.62 561.299l-106.764 38.157M828.116 189.794l-106.633 24.247-87.694 8.116L828.116 333.22l-63.187-86.679 76.97 13.069"/>
                    <path stroke-dasharray="2" d="M829.338 203.816L666.044 305.74l-.666.415M772.124 375.706l-135.33-151.832M775.994 378.604l-5.626-.406-136.27 12.437"/>
                    <path stroke-dasharray="2" d="M624.078 396.149l122.2-87.676 18.65-59.985-41.396-34.447"/>
                    <path stroke-dasharray="2" d="M668.104 306.826l112.818 71.778 37.888 157.048L658.665 639.83l114.316-25.602 45.829-76.667M756.794 529.596L646.578 507.37"/>
                    <path stroke-dasharray="2" d="M756.794 531.485l-96.042 27.865-109.895-30.408L607.1 615.14M820.47 537.56l-103.64-81.004"/>
                </g>
                <path fill="#FEFEFC" d="M29.804 708.923a5.51 5.51 0 0 1 5.503-5.503 5.51 5.51 0 0 1 5.505 5.503 5.51 5.51 0 0 1-5.505 5.505 5.51 5.51 0 0 1-5.503-5.505"/>
                <path fill="#3E82C4" d="M42.097 708.923a6.788 6.788 0 0 0-6.79-6.788 6.788 6.788 0 0 0-6.788 6.788c0 3.75 3.04 6.79 6.789 6.79 3.75 0 6.79-3.04 6.79-6.79m-2.57 0a4.225 4.225 0 0 1-4.22 4.22 4.223 4.223 0 0 1-4.219-4.22 4.222 4.222 0 0 1 4.219-4.218 4.224 4.224 0 0 1 4.22 4.218"/>
                <path fill="#FEFEFC" d="M1.373 672.745c0-6.288 5.114-11.404 11.402-11.404 6.288 0 11.402 5.116 11.402 11.404s-5.114 11.403-11.402 11.403c-6.288 0-11.402-5.115-11.402-11.403"/>
                <path fill="#3E82C4" d="M25.462 672.745c0-7.008-5.682-12.689-12.687-12.689-7.008 0-12.687 5.681-12.687 12.689s5.68 12.688 12.687 12.688c7.005 0 12.687-5.68 12.687-12.688m-2.57 0c0 5.579-4.538 10.119-10.117 10.119-5.58 0-10.117-4.54-10.117-10.12 0-5.578 4.538-10.118 10.117-10.118 5.58 0 10.117 4.54 10.117 10.119"/>
                <path fill="#FEFEFC" d="M153.557 290.426c0-4.064 3.306-7.369 7.369-7.369s7.37 3.305 7.37 7.37c0 4.064-3.307 7.368-7.37 7.368-4.063 0-7.37-3.304-7.37-7.369"/>
                <path fill="#3E82C4" d="M169.58 290.426a8.654 8.654 0 0 0-8.653-8.653 8.654 8.654 0 1 0 8.654 8.653m-2.57 0a6.092 6.092 0 0 1-6.084 6.085 6.092 6.092 0 0 1-6.086-6.085 6.092 6.092 0 0 1 6.086-6.084 6.092 6.092 0 0 1 6.084 6.084"/>
                <path fill="#FEFEFC" d="M98.533 308.151a4.632 4.632 0 0 1 4.627-4.627 4.632 4.632 0 0 1 4.626 4.627 4.632 4.632 0 0 1-4.626 4.627 4.632 4.632 0 0 1-4.627-4.627"/>
                <path fill="#3E82C4" d="M109.07 308.151a5.912 5.912 0 1 0-11.823 0 5.912 5.912 0 0 0 11.824 0m-2.57 0c0 1.843-1.5 3.342-3.342 3.342s-3.341-1.5-3.341-3.342 1.5-3.342 3.34-3.342c1.843 0 3.343 1.5 3.343 3.342"/>
                <path fill="#FEFEFC" d="M109.07 107.059c0-11.558 9.401-20.96 20.959-20.96s20.96 9.402 20.96 20.96c0 11.557-9.402 20.96-20.96 20.96-11.558 0-20.96-9.403-20.96-20.96"/>
                <path fill="#3E82C4" d="M152.273 107.059c0-12.288-9.96-22.245-22.244-22.245-12.286 0-22.245 9.957-22.245 22.245 0 12.285 9.959 22.244 22.245 22.244 12.285 0 22.244-9.96 22.244-22.244m-2.57 0c0 10.848-8.824 19.675-19.674 19.675-10.849 0-19.675-8.827-19.675-19.675 0-10.849 8.826-19.675 19.675-19.675 10.85 0 19.674 8.826 19.674 19.675"/>
                <path fill="#FEFEFC" d="M15.925 74.936c0-8.723 7.096-15.82 15.82-15.82s15.82 7.097 15.82 15.82c0 8.723-7.096 15.82-15.82 15.82s-15.82-7.097-15.82-15.82"/>
                <path fill="#3E82C4" d="M48.85 74.936c0-9.448-7.659-17.105-17.106-17.105-9.446 0-17.104 7.657-17.104 17.105s7.658 17.106 17.104 17.106c9.447 0 17.105-7.658 17.105-17.106m-2.57 0c0 8.015-6.52 14.536-14.535 14.536-8.014 0-14.534-6.52-14.534-14.536 0-8.014 6.52-14.535 14.534-14.535 8.016 0 14.535 6.52 14.535 14.535"/>
                <path fill="#FEFEFC" d="M139.334 174.303c0-7.136 5.805-12.94 12.939-12.94 7.135 0 12.939 5.804 12.939 12.94 0 7.135-5.804 12.939-12.94 12.939-7.133 0-12.938-5.804-12.938-12.94"/>
                <path fill="#3E82C4" d="M166.496 174.303c0-7.858-6.369-14.224-14.222-14.224-7.858 0-14.226 6.366-14.226 14.224 0 7.855 6.368 14.224 14.226 14.224 7.853 0 14.222-6.369 14.222-14.224m-2.57 0c0 6.425-5.226 11.654-11.652 11.654-6.426 0-11.656-5.229-11.656-11.654 0-6.426 5.23-11.655 11.656-11.655s11.653 5.229 11.653 11.655"/>
                <path fill="#FEFEFC" d="M175.85 69.159c0-4.064 3.306-7.37 7.369-7.37 4.062 0 7.37 3.306 7.37 7.37s-3.308 7.369-7.37 7.369c-4.063 0-7.37-3.305-7.37-7.37"/>
                <path fill="#3E82C4" d="M191.873 69.159a8.654 8.654 0 0 0-8.654-8.654 8.654 8.654 0 1 0 8.654 8.654m-2.57 0a6.092 6.092 0 0 1-6.084 6.084 6.092 6.092 0 0 1-6.085-6.084 6.092 6.092 0 0 1 6.085-6.084 6.092 6.092 0 0 1 6.085 6.084"/>
                <path fill="#FEFEFC" d="M60.06 162.636a4.632 4.632 0 0 1 4.627-4.627 4.632 4.632 0 0 1 4.625 4.627 4.632 4.632 0 0 1-4.625 4.627 4.632 4.632 0 0 1-4.627-4.627"/>
                <path fill="#3E82C4" d="M70.597 162.636a5.912 5.912 0 1 0-11.824 0 5.912 5.912 0 0 0 11.824 0m-2.57 0a3.345 3.345 0 0 1-3.342 3.342c-1.842 0-3.34-1.5-3.34-3.342a3.345 3.345 0 0 1 3.34-3.342c1.844 0 3.343 1.5 3.343 3.342"/>
                <path fill="#FEFEFC" d="M100.508 37.677a4.632 4.632 0 0 1 4.627-4.627 4.632 4.632 0 0 1 4.626 4.627 4.632 4.632 0 0 1-4.626 4.627 4.632 4.632 0 0 1-4.627-4.627"/>
                <path fill="#3E82C4" d="M111.046 37.677a5.912 5.912 0 1 0-11.824 0 5.912 5.912 0 0 0 11.824 0m-2.57 0c0 1.843-1.5 3.342-3.342 3.342-1.841 0-3.34-1.5-3.34-3.342s1.499-3.342 3.34-3.342c1.842 0 3.342 1.5 3.342 3.342"/>
                <path fill="#FEFEFC" d="M339.78 196.146c0-7.135 5.805-12.939 12.94-12.939 7.134 0 12.938 5.804 12.938 12.939s-5.804 12.94-12.939 12.94c-7.134 0-12.939-5.805-12.939-12.94"/>
                <path fill="#3E82C4" d="M366.943 196.146c0-7.857-6.37-14.224-14.223-14.224-7.857 0-14.225 6.367-14.225 14.224 0 7.856 6.368 14.224 14.225 14.224 7.853 0 14.223-6.368 14.223-14.224m-2.57 0c0 6.426-5.227 11.654-11.653 11.654s-11.656-5.228-11.656-11.654 5.23-11.654 11.656-11.654 11.653 5.228 11.653 11.654"/>
                <path fill="#FEFEFC" d="M318.579 292.514c0-6.425 5.228-11.654 11.654-11.654s11.654 5.229 11.654 11.654c0 6.426-5.228 11.655-11.654 11.655s-11.654-5.229-11.654-11.655"/>
                <path fill="#3E82C4" d="M343.172 292.514c0-7.146-5.794-12.939-12.938-12.939-7.147 0-12.94 5.793-12.94 12.94 0 7.146 5.793 12.938 12.94 12.938 7.144 0 12.938-5.792 12.938-12.939m-2.57 0c0 5.718-4.651 10.37-10.368 10.37-5.72 0-10.37-4.652-10.37-10.37 0-5.717 4.65-10.369 10.37-10.369 5.717 0 10.368 4.652 10.368 10.37"/>
                <path fill="#FEFEFC" d="M211.974 152.034a4.632 4.632 0 0 1 4.627-4.627 4.632 4.632 0 0 1 4.626 4.627 4.632 4.632 0 0 1-4.626 4.627 4.632 4.632 0 0 1-4.627-4.627"/>
                <path fill="#3E82C4" d="M222.512 152.034a5.912 5.912 0 1 0-11.824 0 5.912 5.912 0 0 0 11.824 0m-2.57 0c0 1.843-1.5 3.342-3.342 3.342-1.841 0-3.34-1.5-3.34-3.342s1.499-3.342 3.34-3.342c1.843 0 3.342 1.5 3.342 3.342"/>
                <path fill="#FEFEFC" d="M370.732 51.235a6.47 6.47 0 0 1 6.462-6.463 6.471 6.471 0 0 1 6.466 6.463c0 3.565-2.9 6.463-6.466 6.463a6.47 6.47 0 0 1-6.462-6.463"/>
                <path fill="#3E82C4" d="M384.944 51.235c0-4.28-3.47-7.748-7.75-7.748a7.748 7.748 0 0 0-7.747 7.748c0 4.28 3.469 7.748 7.748 7.748 4.28 0 7.749-3.468 7.749-7.748m-2.57 0a5.185 5.185 0 0 1-5.18 5.178 5.184 5.184 0 0 1-5.178-5.178 5.184 5.184 0 0 1 5.179-5.178 5.185 5.185 0 0 1 5.18 5.178"/>
                <path fill="#FEFEFC" d="M223.67 117.675a3.564 3.564 0 0 1 3.56-3.56 3.565 3.565 0 0 1 3.562 3.56 3.565 3.565 0 0 1-3.562 3.56 3.564 3.564 0 0 1-3.56-3.56"/>
                <path fill="#3E82C4" d="M231.435 117.675a4.203 4.203 0 1 0-8.406 0 4.203 4.203 0 0 0 8.406 0m-1.285 0a2.923 2.923 0 0 1-2.918 2.918 2.923 2.923 0 0 1-2.92-2.918 2.923 2.923 0 0 1 2.92-2.918 2.923 2.923 0 0 1 2.918 2.918"/>
                <path fill="#FEFEFC" d="M260.8 254.987a6.24 6.24 0 0 1 6.232-6.233 6.24 6.24 0 0 1 6.232 6.233 6.24 6.24 0 0 1-6.232 6.233 6.24 6.24 0 0 1-6.233-6.233"/>
                <path fill="#3E82C4" d="M274.55 254.987a7.518 7.518 0 1 0-15.036 0 7.518 7.518 0 0 0 15.035 0m-2.57 0a4.955 4.955 0 0 1-4.948 4.948 4.953 4.953 0 0 1-4.946-4.948 4.953 4.953 0 0 1 4.946-4.949 4.955 4.955 0 0 1 4.949 4.949"/>
                <path fill="#FEFEFC" d="M254.57 156.406c0-12.243 9.961-22.203 22.205-22.203 12.244 0 22.203 9.96 22.203 22.203 0 12.244-9.959 22.205-22.203 22.205s-22.204-9.961-22.204-22.205"/>
                <path fill="#3E82C4" d="M300.263 156.406c0-12.975-10.519-23.488-23.487-23.488-12.974 0-23.49 10.513-23.49 23.488 0 12.972 10.516 23.49 23.49 23.49 12.968 0 23.487-10.518 23.487-23.49m-2.57 0c0 11.536-9.384 20.92-20.917 20.92-11.536 0-20.921-9.384-20.921-20.92 0-11.535 9.385-20.918 20.92-20.918 11.534 0 20.918 9.383 20.918 20.918"/>
                <path fill="#FEFEFC" d="M368.228 274.582c0-17.27 14.05-31.32 31.32-31.32 17.268 0 31.319 14.05 31.319 31.32 0 17.269-14.05 31.32-31.32 31.32-17.269 0-31.32-14.051-31.32-31.32"/>
                <path fill="#3E82C4" d="M432.152 274.582c0-18.008-14.598-32.605-32.605-32.605-18.008 0-32.604 14.597-32.604 32.605 0 18.008 14.596 32.604 32.604 32.604 18.007 0 32.605-14.596 32.605-32.604m-2.57 0c0 16.56-13.474 30.034-30.035 30.034s-30.035-13.473-30.035-30.034c0-16.562 13.474-30.035 30.035-30.035s30.035 13.473 30.035 30.035"/>
                <path fill="#FEFEFC" d="M342.477 370.522c0-13.492 10.975-24.467 24.466-24.467 13.49 0 24.466 10.975 24.466 24.467 0 13.49-10.976 24.466-24.466 24.466s-24.466-10.976-24.466-24.466"/>
                <path fill="#3E82C4" d="M392.694 370.522c0-14.223-11.53-25.752-25.751-25.752-14.223 0-25.751 11.53-25.751 25.752 0 14.221 11.528 25.751 25.75 25.751s25.752-11.53 25.752-25.75m-2.57 0c0 12.781-10.4 23.18-23.181 23.18s-23.181-10.399-23.181-23.18c0-12.783 10.4-23.183 23.18-23.183 12.782 0 23.182 10.4 23.182 23.182"/>
                <path fill="#FEFEFC" d="M410.617 164.605a3.145 3.145 0 0 1 3.142-3.141 3.146 3.146 0 0 1 3.143 3.141 3.146 3.146 0 0 1-3.143 3.142 3.145 3.145 0 0 1-3.142-3.142"/>
                <path fill="#3E82C4" d="M417.544 164.605a3.784 3.784 0 1 0-7.568 0 3.784 3.784 0 0 0 7.568 0m-1.285 0c0 1.38-1.122 2.5-2.5 2.5s-2.5-1.12-2.5-2.5c0-1.378 1.122-2.499 2.5-2.499s2.5 1.12 2.5 2.5"/>
                <path fill="#FEFEFC" d="M357.858 503.725c0-11.366 9.246-20.613 20.612-20.613 11.366 0 20.612 9.247 20.612 20.613 0 11.365-9.246 20.611-20.612 20.611-11.366 0-20.612-9.246-20.612-20.611"/>
                <path fill="#3E82C4" d="M400.367 503.725c0-12.094-9.804-21.897-21.897-21.897-12.093 0-21.897 9.803-21.897 21.897 0 12.092 9.804 21.896 21.897 21.896 12.093 0 21.897-9.804 21.897-21.896m-2.57 0c0 10.657-8.67 19.326-19.327 19.326-10.657 0-19.327-8.669-19.327-19.326s8.67-19.328 19.327-19.328c10.658 0 19.327 8.671 19.327 19.328"/>
                <path fill="#FEFEFC" d="M303.452 580.82c0-8.735 7.107-15.842 15.842-15.842s15.842 7.107 15.842 15.842-7.107 15.841-15.842 15.841-15.842-7.106-15.842-15.841"/>
                <path fill="#3D81C3" d="M336.42 580.82c0-9.46-7.669-17.127-17.126-17.127-9.46 0-17.126 7.667-17.126 17.127 0 9.458 7.667 17.126 17.126 17.126 9.457 0 17.127-7.668 17.127-17.126m-2.57 0c0 8.027-6.53 14.557-14.557 14.557-8.026 0-14.556-6.53-14.556-14.557 0-8.027 6.53-14.557 14.556-14.557 8.027 0 14.557 6.53 14.557 14.557"/>
                <path fill="#FEFEFC" d="M336.652 432.788c0-6.699 5.448-12.148 12.146-12.148s12.148 5.45 12.148 12.148c0 6.698-5.45 12.146-12.148 12.146-6.698 0-12.146-5.448-12.146-12.146"/>
                <path fill="#3E82C4" d="M362.23 432.788c0-7.42-6.014-13.433-13.432-13.433-7.419 0-13.43 6.014-13.43 13.433 0 7.416 6.011 13.43 13.43 13.43 7.418 0 13.433-6.014 13.433-13.43m-2.57 0c0 5.989-4.872 10.861-10.863 10.861-5.989 0-10.861-4.872-10.861-10.861 0-5.99 4.872-10.863 10.861-10.863 5.99 0 10.863 4.872 10.863 10.863"/>
                <path fill="#FEFEFC" d="M354.594 652.403a4.59 4.59 0 0 1 4.584-4.584 4.59 4.59 0 0 1 4.585 4.584 4.59 4.59 0 0 1-4.585 4.584 4.59 4.59 0 0 1-4.584-4.584"/>
                <path fill="#3E82C4" d="M365.048 652.403a5.87 5.87 0 1 0-11.739 0 5.87 5.87 0 0 0 11.739 0m-2.57 0c0 1.82-1.48 3.299-3.3 3.299-1.819 0-3.3-1.48-3.3-3.299 0-1.82 1.481-3.3 3.3-3.3 1.82 0 3.3 1.48 3.3 3.3"/>
                <path fill="#FEFEFC" d="M416.314 688.824a6.231 6.231 0 0 1 6.224-6.224 6.23 6.23 0 0 1 6.223 6.224 6.23 6.23 0 0 1-6.223 6.223 6.23 6.23 0 0 1-6.224-6.223"/>
                <path fill="#3E82C4" d="M430.046 688.824a7.508 7.508 0 0 0-7.508-7.51 7.507 7.507 0 0 0-7.509 7.51 7.507 7.507 0 0 0 7.51 7.508 7.508 7.508 0 0 0 7.507-7.508m-2.57 0a4.944 4.944 0 0 1-4.938 4.938 4.945 4.945 0 0 1-4.94-4.938 4.946 4.946 0 0 1 4.94-4.94 4.945 4.945 0 0 1 4.938 4.94"/>
                <path fill="#FEFEFC" d="M426.362 580.82c0-17.713 14.41-32.123 32.123-32.123 17.713 0 32.123 14.41 32.123 32.123 0 17.712-14.41 32.123-32.123 32.123-17.712 0-32.123-14.41-32.123-32.123"/>
                <path fill="#3E82C4" d="M491.893 580.82c0-18.452-14.96-33.408-33.408-33.408-18.451 0-33.408 14.956-33.408 33.408 0 18.451 14.957 33.407 33.408 33.407 18.449 0 33.408-14.956 33.408-33.407m-2.57 0c0 17.003-13.835 30.838-30.838 30.838s-30.838-13.835-30.838-30.838 13.835-30.838 30.838-30.838 30.838 13.835 30.838 30.838"/>
                <path fill="#FEFEFC" d="M505.818 446.28c0-11.967 9.736-21.704 21.703-21.704 11.968 0 21.704 9.737 21.704 21.704s-9.736 21.703-21.704 21.703c-11.967 0-21.703-9.736-21.703-21.703"/>
                <path fill="#3E82C4" d="M550.51 446.28c0-12.696-10.293-22.99-22.988-22.99-12.697 0-22.989 10.294-22.989 22.99 0 12.695 10.292 22.987 22.989 22.987 12.695 0 22.988-10.292 22.988-22.987m-2.57 0c0 11.259-9.159 20.418-20.418 20.418-11.26 0-20.419-9.16-20.419-20.418 0-11.26 9.159-20.42 20.419-20.42s20.418 9.16 20.418 20.42"/>
                <path fill="#FEFEFC" d="M754.142 378.604c0-12.547 10.207-22.753 22.753-22.753s22.753 10.206 22.753 22.753-10.207 22.753-22.753 22.753-22.753-10.206-22.753-22.753"/>
                <path fill="#3E82C4" d="M800.933 378.604c0-13.276-10.763-24.038-24.038-24.038-13.277 0-24.038 10.762-24.038 24.038s10.76 24.038 24.038 24.038c13.275 0 24.038-10.762 24.038-24.038m-2.57 0c0 11.838-9.63 21.468-21.468 21.468s-21.469-9.63-21.469-21.468 9.63-21.468 21.469-21.468c11.838 0 21.468 9.63 21.468 21.468"/>
                <path fill="#FEFEFC" d="M580.22 311.456a6.598 6.598 0 0 1 6.59-6.59 6.598 6.598 0 0 1 6.591 6.59 6.598 6.598 0 0 1-6.591 6.59 6.598 6.598 0 0 1-6.59-6.59"/>
                <path fill="#3E82C4" d="M594.686 311.456a7.875 7.875 0 0 0-7.875-7.875 7.875 7.875 0 0 0 0 15.75 7.876 7.876 0 0 0 7.875-7.875m-2.57 0a5.312 5.312 0 0 1-5.305 5.306 5.312 5.312 0 0 1-5.307-5.306 5.312 5.312 0 0 1 5.307-5.305 5.312 5.312 0 0 1 5.305 5.305"/>
                <path fill="#FEFEFC" d="M539.815 381.61a4.883 4.883 0 0 1 4.878-4.878 4.884 4.884 0 0 1 4.879 4.877 4.884 4.884 0 0 1-4.879 4.878 4.883 4.883 0 0 1-4.878-4.878"/>
                <path fill="#3E82C4" d="M550.856 381.61a6.163 6.163 0 1 0-12.325 0 6.163 6.163 0 0 0 12.325 0m-2.57 0a3.596 3.596 0 0 1-3.592 3.592 3.597 3.597 0 0 1-3.594-3.593 3.597 3.597 0 0 1 3.594-3.592 3.596 3.596 0 0 1 3.592 3.592"/>
                <path fill="#FEFEFC" d="M495.272 333.22c0-8.598 6.995-15.593 15.594-15.593 8.597 0 15.592 6.995 15.592 15.592 0 8.598-6.995 15.593-15.592 15.593-8.599 0-15.594-6.995-15.594-15.593"/>
                <path fill="#3E82C4" d="M527.742 333.22c0-9.323-7.557-16.878-16.877-16.878-9.323 0-16.879 7.555-16.879 16.877 0 9.32 7.556 16.878 16.88 16.878 9.319 0 16.876-7.558 16.876-16.878m-2.57 0c0 7.89-6.418 14.308-14.307 14.308-7.89 0-14.309-6.418-14.309-14.308 0-7.889 6.42-14.307 14.31-14.307 7.888 0 14.307 6.418 14.307 14.307"/>
                <path fill="#FEFEFC" d="M517.717 626.642c0-6.136 4.993-11.13 11.13-11.13 6.137 0 11.13 4.994 11.13 11.13 0 6.137-4.993 11.13-11.13 11.13-6.137 0-11.13-4.993-11.13-11.13"/>
                <path fill="#3E82C4" d="M541.262 626.642c0-6.857-5.558-12.414-12.415-12.414-6.857 0-12.415 5.557-12.415 12.414 0 6.857 5.558 12.415 12.415 12.415 6.857 0 12.415-5.558 12.415-12.415m-2.57 0c0 5.43-4.416 9.845-9.845 9.845-5.428 0-9.845-4.416-9.845-9.845 0-5.428 4.417-9.845 9.845-9.845 5.429 0 9.845 4.417 9.845 9.845"/>
                <path fill="#FEFEFC" d="M595.97 391.992c0-17.713 14.411-32.123 32.123-32.123 17.713 0 32.123 14.41 32.123 32.123 0 17.712-14.41 32.122-32.123 32.122-17.712 0-32.122-14.41-32.122-32.122"/>
                <path fill="#3E82C4" d="M661.501 391.992c0-18.452-14.959-33.408-33.408-33.408-18.45 0-33.407 14.956-33.407 33.408 0 18.451 14.956 33.407 33.407 33.407 18.45 0 33.408-14.956 33.408-33.407m-2.57 0c0 17.003-13.834 30.838-30.838 30.838-17.003 0-30.837-13.835-30.837-30.838 0-17.004 13.834-30.838 30.837-30.838 17.004 0 30.838 13.834 30.838 30.838"/>
                <path fill="#FEFEFC" d="M599.848 221.098c0-17.713 14.41-32.123 32.123-32.123 17.712 0 32.123 14.41 32.123 32.123 0 17.712-14.41 32.123-32.123 32.123-17.713 0-32.123-14.41-32.123-32.123"/>
                <path fill="#3E82C4" d="M665.378 221.098c0-18.452-14.959-33.408-33.407-33.408-18.452 0-33.408 14.956-33.408 33.408 0 18.451 14.956 33.407 33.408 33.407 18.448 0 33.407-14.956 33.407-33.407m-2.57 0c0 17.004-13.834 30.838-30.837 30.838-17.004 0-30.838-13.834-30.838-30.838 0-17.005 13.834-30.838 30.838-30.838 17.003 0 30.838 13.833 30.838 30.838"/>
                <path fill="#FEFEFC" d="M635.828 559.349c0-13.019 10.592-23.61 23.609-23.61 13.019 0 23.61 10.591 23.61 23.61s-10.591 23.609-23.61 23.609c-13.017 0-23.609-10.59-23.609-23.61"/>
                <path fill="#3E82C4" d="M684.332 559.349c0-13.749-11.146-24.895-24.895-24.895-13.749 0-24.894 11.146-24.894 24.895 0 13.747 11.145 24.894 24.894 24.894 13.749 0 24.895-11.147 24.895-24.894m-2.57 0c0 12.31-10.014 22.324-22.325 22.324-12.31 0-22.324-10.015-22.324-22.324 0-12.31 10.015-22.325 22.324-22.325 12.31 0 22.325 10.015 22.325 22.325"/>
                <path fill="#FEFEFC" d="M700.93 456.556c0-8.767 7.132-15.9 15.9-15.9s15.9 7.133 15.9 15.9-7.132 15.9-15.9 15.9-15.9-7.133-15.9-15.9"/>
                <path fill="#3E82C4" d="M734.016 456.556c0-9.492-7.694-17.186-17.186-17.186-9.491 0-17.186 7.694-17.186 17.186s7.695 17.186 17.186 17.186c9.492 0 17.186-7.694 17.186-17.186m-2.57 0c0 8.059-6.557 14.616-14.616 14.616s-14.616-6.557-14.616-14.616c0-8.06 6.557-14.616 14.616-14.616 8.06 0 14.616 6.557 14.616 14.616"/>
                <path fill="#FEFEFC" d="M714.742 168.553c0-6.698 5.45-12.147 12.148-12.147 6.698 0 12.146 5.449 12.146 12.147 0 6.697-5.448 12.146-12.146 12.146-6.699 0-12.148-5.449-12.148-12.146"/>
                <path fill="#3F83C4" d="M740.321 168.553c0-7.419-6.015-13.432-13.432-13.432-7.42 0-13.431 6.013-13.431 13.432 0 7.417 6.012 13.431 13.43 13.431s13.433-6.014 13.433-13.43m-2.57 0c0 5.988-4.872 10.86-10.862 10.86s-10.862-4.872-10.862-10.86c0-5.991 4.873-10.864 10.862-10.864 5.99 0 10.862 4.873 10.862 10.863"/>
                <path fill="#FEFEFC" d="M734.13 308.473c0-6.698 5.45-12.148 12.146-12.148 6.699 0 12.148 5.45 12.148 12.148 0 6.697-5.45 12.146-12.148 12.146-6.697 0-12.146-5.45-12.146-12.146"/>
                <path fill="#3E82C4" d="M759.71 308.473c0-7.42-6.016-13.433-13.433-13.433-7.42 0-13.432 6.014-13.432 13.433 0 7.416 6.013 13.431 13.432 13.431 7.417 0 13.432-6.015 13.432-13.431m-2.57 0c0 5.989-4.872 10.861-10.862 10.861s-10.862-4.872-10.862-10.861c0-5.99 4.873-10.863 10.862-10.863 5.99 0 10.862 4.873 10.862 10.863"/>
                <path fill="#FEFEFC" d="M758.079 246.542a6.859 6.859 0 0 1 6.85-6.851c3.777 0 6.85 3.073 6.85 6.85a6.858 6.858 0 0 1-6.85 6.85c-3.777 0-6.85-3.073-6.85-6.85"/>
                <path fill="#3E82C4" d="M773.064 246.542a8.135 8.135 0 0 0-8.135-8.136 8.135 8.135 0 0 0-8.136 8.136 8.136 8.136 0 0 0 16.27 0m-2.569 0a5.571 5.571 0 0 1-5.565 5.565 5.572 5.572 0 0 1-5.566-5.565 5.572 5.572 0 0 1 5.566-5.566 5.572 5.572 0 0 1 5.565 5.566"/>
                <path fill="#FEFEFC" d="M818.948 330.917a6.859 6.859 0 0 1 6.851-6.85c3.777 0 6.85 3.073 6.85 6.85a6.858 6.858 0 0 1-6.85 6.85c-3.777 0-6.851-3.073-6.851-6.85"/>
                <path fill="#3E82C4" d="M833.933 330.917a8.135 8.135 0 0 0-8.134-8.136 8.135 8.135 0 0 0-8.136 8.136 8.136 8.136 0 0 0 16.27 0m-2.57 0a5.571 5.571 0 0 1-5.564 5.565 5.573 5.573 0 0 1-5.567-5.565 5.573 5.573 0 0 1 5.567-5.566 5.572 5.572 0 0 1 5.565 5.566"/>
                <path fill="#4E7DBF" d="M554.254 536.653a7.056 7.056 0 0 1-7.055-7.056 7.054 7.054 0 0 1 7.055-7.057 7.056 7.056 0 1 1 0 14.113M548.947 605.808a4.255 4.255 0 1 1 .001-8.51 4.255 4.255 0 0 1 0 8.51"/>
                <path fill="#FEFEFC" d="M760.994 614.227c0-6.136 4.993-11.13 11.13-11.13 6.137 0 11.13 4.994 11.13 11.13 0 6.137-4.993 11.13-11.13 11.13-6.137 0-11.13-4.993-11.13-11.13"/>
                <path fill="#3E82C4" d="M784.539 614.227c0-6.857-5.559-12.414-12.415-12.414-6.857 0-12.415 5.557-12.415 12.414 0 6.857 5.558 12.415 12.415 12.415 6.856 0 12.415-5.558 12.415-12.415m-2.57 0c0 5.43-4.416 9.845-9.845 9.845s-9.845-4.416-9.845-9.845c0-5.428 4.416-9.845 9.845-9.845s9.845 4.417 9.845 9.845"/>
                <path fill="#FEFEFC" d="M802.968 537.56c0-8.734 7.107-15.84 15.842-15.84 8.733 0 15.84 7.106 15.84 15.84 0 8.735-7.107 15.841-15.84 15.841-8.735 0-15.842-7.106-15.842-15.84"/>
                <path fill="#3E82C4" d="M835.935 537.56c0-9.459-7.668-17.125-17.126-17.125-9.46 0-17.125 7.666-17.125 17.126 0 9.458 7.665 17.125 17.125 17.125 9.458 0 17.126-7.667 17.126-17.125m-2.57 0c0 8.025-6.53 14.555-14.556 14.555s-14.556-6.53-14.556-14.555c0-8.026 6.53-14.556 14.556-14.556 8.027 0 14.557 6.53 14.557 14.556"/>
                <path fill="#FEFEFC" d="M824.748 259.61c0-8.735 7.107-15.84 15.841-15.84 8.734 0 15.84 7.105 15.84 15.84s-7.106 15.84-15.84 15.84-15.841-7.105-15.841-15.84"/>
                <path fill="#3F83C4" d="M857.715 259.61c0-9.46-7.668-17.125-17.127-17.125-9.46 0-17.125 7.665-17.125 17.125 0 9.458 7.666 17.125 17.125 17.125s17.127-7.667 17.127-17.125m-2.57 0c0 8.027-6.53 14.555-14.557 14.555-8.025 0-14.555-6.528-14.555-14.555 0-8.027 6.53-14.556 14.555-14.556 8.027 0 14.557 6.529 14.557 14.556"/>
                <path fill="#FEFEFC" d="M818.092 194.698c0-8.735 7.107-15.84 15.842-15.84 8.733 0 15.84 7.105 15.84 15.84s-7.107 15.84-15.84 15.84c-8.735 0-15.842-7.105-15.842-15.84"/>
                <path fill="#3F83C4" d="M851.06 194.698c0-9.46-7.669-17.125-17.127-17.125-9.46 0-17.125 7.666-17.125 17.125 0 9.458 7.665 17.125 17.125 17.125 9.458 0 17.127-7.667 17.127-17.125m-2.57 0c0 8.027-6.53 14.556-14.557 14.556-8.026 0-14.556-6.53-14.556-14.556 0-8.027 6.53-14.555 14.556-14.555 8.027 0 14.557 6.528 14.557 14.555"/>
                <path fill="#FEFEFC" d="M599.966 614.227c0-3.934 3.2-7.135 7.135-7.135 3.934 0 7.134 3.201 7.134 7.135 0 3.935-3.2 7.136-7.134 7.136a7.143 7.143 0 0 1-7.135-7.136"/>
                <path fill="#3E82C4" d="M615.52 614.227a8.42 8.42 0 1 0-16.84 0 8.42 8.42 0 0 0 16.84 0m-2.57 0a5.856 5.856 0 0 1-5.85 5.85 5.856 5.856 0 0 1-5.849-5.85 5.856 5.856 0 0 1 5.85-5.85 5.856 5.856 0 0 1 5.85 5.85"/>
                <path fill="#4E7DBF" d="M823.462 677.05a4.653 4.653 0 0 1-4.653-4.654 4.65 4.65 0 0 1 4.653-4.653 4.653 4.653 0 1 1 0 9.307"/>
                <path fill="#FEFEFC" d="M752.023 529.596c0-2.63 2.14-4.77 4.77-4.77 2.631 0 4.772 2.14 4.772 4.77 0 2.63-2.141 4.771-4.771 4.771s-4.771-2.14-4.771-4.77"/>
                <path fill="#3E82C4" d="M762.85 529.596a6.056 6.056 0 1 0-12.112 0 6.056 6.056 0 0 0 12.111 0m-2.57 0a3.49 3.49 0 0 1-3.486 3.486 3.49 3.49 0 0 1-3.485-3.486 3.49 3.49 0 0 1 3.485-3.486 3.49 3.49 0 0 1 3.486 3.486"/>
                <path fill="#FEFEFC" d="M449.016 332.355a6.598 6.598 0 0 1 6.59-6.59 6.598 6.598 0 0 1 6.592 6.59 6.598 6.598 0 0 1-6.592 6.59 6.598 6.598 0 0 1-6.59-6.59"/>
                <path fill="#3E82C4" d="M463.482 332.355a7.875 7.875 0 0 0-7.875-7.875 7.875 7.875 0 0 0 0 15.75 7.876 7.876 0 0 0 7.875-7.875m-2.57 0a5.312 5.312 0 0 1-5.305 5.305 5.312 5.312 0 0 1-5.307-5.305 5.312 5.312 0 0 1 5.307-5.305 5.312 5.312 0 0 1 5.305 5.305"/>
                <path fill="#FEFEFC" d="M451.077 235.451a3.335 3.335 0 0 1 3.33-3.33 3.335 3.335 0 0 1 3.333 3.33 3.335 3.335 0 0 1-3.332 3.332 3.335 3.335 0 0 1-3.33-3.332"/>
                <path fill="#3E82C4" d="M458.382 235.451a3.973 3.973 0 1 0-7.947.001 3.973 3.973 0 0 0 7.947 0m-1.285 0a2.692 2.692 0 0 1-2.689 2.689 2.692 2.692 0 0 1-2.688-2.69 2.691 2.691 0 0 1 2.688-2.688 2.69 2.69 0 0 1 2.69 2.688"/>
                <path fill="#FEFEFC" d="M495.32 183.734a4.882 4.882 0 0 1 4.876-4.876 4.882 4.882 0 0 1 4.877 4.876 4.882 4.882 0 0 1-4.877 4.877 4.882 4.882 0 0 1-4.876-4.877"/>
                <path fill="#3E82C4" d="M506.358 183.734a6.16 6.16 0 0 0-6.161-6.16 6.16 6.16 0 1 0 0 12.321 6.161 6.161 0 0 0 6.161-6.16m-2.57 0a3.595 3.595 0 0 1-3.591 3.59 3.595 3.595 0 0 1-3.593-3.59 3.595 3.595 0 0 1 3.593-3.592c1.98 0 3.591 1.61 3.591 3.591"/>
                <path fill="#FEFEFC" d="M554.093 162.996a6.598 6.598 0 0 1 6.59-6.59 6.598 6.598 0 0 1 6.592 6.59 6.598 6.598 0 0 1-6.592 6.59 6.598 6.598 0 0 1-6.59-6.59"/>
                <path fill="#3E82C4" d="M568.56 162.996a7.875 7.875 0 0 0-7.876-7.875 7.875 7.875 0 0 0 0 15.75 7.876 7.876 0 0 0 7.876-7.875m-2.57 0a5.312 5.312 0 0 1-5.306 5.306 5.312 5.312 0 0 1-5.306-5.306 5.312 5.312 0 0 1 5.306-5.305 5.312 5.312 0 0 1 5.306 5.305"/>
                <path fill="#FEFEFC" d="M462.026 130.35c0-15.321 12.465-27.786 27.786-27.786 15.322 0 27.787 12.465 27.787 27.786 0 15.321-12.465 27.786-27.787 27.786-15.321 0-27.786-12.465-27.786-27.786"/>
                <path fill="#3E82C4" d="M518.883 130.35c0-16.056-13.016-29.07-29.07-29.07-16.057 0-29.072 13.014-29.072 29.07s13.015 29.071 29.071 29.071c16.055 0 29.071-13.015 29.071-29.07m-2.57 0c0 14.613-11.887 26.5-26.5 26.5-14.614 0-26.502-11.887-26.502-26.5 0-14.614 11.888-26.502 26.501-26.502 14.614 0 26.502 11.888 26.502 26.501"/>
                <path fill="#FEFEFC" d="M538.71 49.027c0-6.698 5.449-12.148 12.147-12.148s12.146 5.45 12.146 12.148c0 6.697-5.448 12.146-12.146 12.146s-12.148-5.45-12.148-12.146"/>
                <path fill="#3E82C4" d="M564.288 49.027c0-7.42-6.014-13.433-13.432-13.433-7.42 0-13.431 6.014-13.431 13.433 0 7.416 6.012 13.431 13.43 13.431 7.419 0 13.433-6.015 13.433-13.431m-2.57 0c0 5.989-4.872 10.861-10.862 10.861s-10.862-4.872-10.862-10.861c0-5.99 4.873-10.863 10.862-10.863 5.99 0 10.862 4.873 10.862 10.863"/>
                <path fill="#FEFEFC" d="M738.728 69.157c0-6.698 5.449-12.148 12.147-12.148s12.146 5.45 12.146 12.148c0 6.697-5.448 12.146-12.146 12.146s-12.147-5.45-12.147-12.146"/>
                <path fill="#3F83C4" d="M764.307 69.157c0-7.42-6.015-13.433-13.433-13.433-7.419 0-13.431 6.014-13.431 13.433 0 7.416 6.012 13.431 13.431 13.431 7.418 0 13.433-6.015 13.433-13.431m-2.57 0c0 5.989-4.873 10.861-10.863 10.861-5.989 0-10.861-4.872-10.861-10.861 0-5.99 4.872-10.863 10.861-10.863 5.99 0 10.863 4.873 10.863 10.863"/>
                <path fill="#FEFEFC" d="M679.586 14.803a6.598 6.598 0 0 1 6.59-6.59 6.598 6.598 0 0 1 6.592 6.59 6.598 6.598 0 0 1-6.592 6.59 6.598 6.598 0 0 1-6.59-6.59"/>
                <path fill="#3F83C4" d="M694.053 14.803a7.875 7.875 0 0 0-7.876-7.875 7.875 7.875 0 0 0 0 15.75 7.876 7.876 0 0 0 7.876-7.875m-2.57 0a5.312 5.312 0 0 1-5.306 5.305 5.312 5.312 0 0 1-5.306-5.305 5.312 5.312 0 0 1 5.306-5.306 5.312 5.312 0 0 1 5.306 5.306"/>
                <path fill="#FEFEFC" d="M629.016 57.542a4.777 4.777 0 0 1 4.772-4.772 4.777 4.777 0 0 1 4.773 4.772 4.777 4.777 0 0 1-4.773 4.773 4.777 4.777 0 0 1-4.772-4.773"/>
                <path fill="#3F83C4" d="M639.846 57.542a6.056 6.056 0 0 0-6.057-6.057 6.056 6.056 0 0 0-6.057 6.057 6.056 6.056 0 0 0 6.057 6.058 6.056 6.056 0 0 0 6.057-6.058m-2.57 0a3.491 3.491 0 0 1-3.487 3.488 3.49 3.49 0 0 1-3.487-3.488 3.49 3.49 0 0 1 3.487-3.487 3.491 3.491 0 0 1 3.487 3.487M481.578 82.998a3.242 3.242 0 0 1-3.243-3.243 3.241 3.241 0 0 1 3.243-3.243 3.242 3.242 0 1 1 0 6.486M156.604 661.644a7.644 7.644 0 0 1-7.647-7.646 7.642 7.642 0 0 1 7.647-7.642 7.644 7.644 0 1 1 0 15.288M102.302 664.103a5.05 5.05 0 1 1 0-10.103 5.051 5.051 0 1 1 0 10.103M88.077 522.957a6.851 6.851 0 1 1 0-13.7 6.851 6.851 0 0 1 0 13.7M88.078 624.756a5.05 5.05 0 1 1 0-10.103 5.051 5.051 0 1 1 0 10.103M42.092 321.997a5.157 5.157 0 1 1 0-10.314 5.157 5.157 0 1 1 0 10.314M12.776 414.552a5.05 5.05 0 1 1 0-10.103 5.051 5.051 0 1 1 0 10.103M16.55 292.002a3.79 3.79 0 1 1 0-7.58 3.789 3.789 0 1 1 0 7.58M187.109 248.888a7.467 7.467 0 0 1-7.468-7.468c0-4.127 3.34-7.469 7.468-7.469a7.47 7.47 0 0 1 0 14.937M83.691 211.082a7.467 7.467 0 0 1-7.468-7.467 7.468 7.468 0 0 1 14.936 0 7.47 7.47 0 0 1-7.468 7.467M15.288 244.266a5.157 5.157 0 1 1 0-10.314 5.157 5.157 0 1 1 0 10.314M30.283 118.276a5.157 5.157 0 1 1 0-10.314 5.157 5.157 0 1 1 0 10.314M199.495 143.869a5.472 5.472 0 0 1-5.472-5.474 5.471 5.471 0 0 1 5.472-5.472 5.473 5.473 0 0 1 0 10.946M319.293 226.571a5.472 5.472 0 0 1-5.471-5.474 5.47 5.47 0 0 1 5.47-5.472 5.471 5.471 0 0 1 5.475 5.472 5.472 5.472 0 0 1-5.474 5.474M324.766 345.703a5.472 5.472 0 0 1-5.472-5.473 5.471 5.471 0 0 1 5.472-5.473 5.473 5.473 0 0 1 0 10.946M261.004 76.471a5.472 5.472 0 0 1-5.472-5.474 5.471 5.471 0 0 1 5.472-5.472 5.473 5.473 0 0 1 0 10.946M294.79 72.311a6.786 6.786 0 0 1-6.786-6.787 6.784 6.784 0 0 1 6.785-6.786 6.787 6.787 0 1 1 0 13.573M414.447 118.914a5.472 5.472 0 0 1-5.473-5.474 5.471 5.471 0 0 1 5.473-5.472 5.473 5.473 0 0 1 0 10.946M247.734 635.871a5.05 5.05 0 1 1 0-10.103 5.052 5.052 0 1 1 0 10.103M268.318 436.9a7.312 7.312 0 0 1-7.312-7.314 7.31 7.31 0 0 1 7.312-7.314 7.311 7.311 0 0 1 7.313 7.314 7.314 7.314 0 0 1-7.313 7.313M429.28 459.705a6.744 6.744 0 1 1 .003-13.487 6.744 6.744 0 0 1-.003 13.487M485.15 398.845a6.744 6.744 0 1 1 .003-13.487 6.744 6.744 0 0 1-.004 13.487M665.378 312.796a7.056 7.056 0 0 1-7.056-7.057 7.054 7.054 0 0 1 7.056-7.057 7.056 7.056 0 1 1 0 14.114M663.317 137.407a7.056 7.056 0 0 1-7.055-7.057 7.054 7.054 0 0 1 7.055-7.056 7.056 7.056 0 1 1 0 14.113M794.625 143.148a7.057 7.057 0 1 1 .003-14.113 7.057 7.057 0 0 1-.003 14.113M658.665 644.483a4.653 4.653 0 0 1-4.653-4.654 4.65 4.65 0 0 1 4.653-4.653 4.653 4.653 0 1 1 0 9.307M716.83 671.017a4.654 4.654 0 1 1 0-9.308 4.654 4.654 0 0 1 0 9.308M644.115 511.624a4.255 4.255 0 1 1 0-8.51 4.255 4.255 0 0 1 0 8.51M438.99 198.076a5.472 5.472 0 0 1-5.473-5.474 5.471 5.471 0 0 1 5.472-5.472 5.473 5.473 0 0 1 0 10.946M583.138 124.184a7.056 7.056 0 0 1-7.056-7.057 7.054 7.054 0 0 1 7.056-7.057 7.056 7.056 0 1 1 0 14.114M544.693 266.667a7.056 7.056 0 0 1-7.056-7.057 7.054 7.054 0 0 1 7.056-7.057 7.056 7.056 0 1 1 0 14.114M721.483 218.558a4.517 4.517 0 1 1 .001-9.034 4.517 4.517 0 0 1-.001 9.034M715.297 101.28a5.522 5.522 0 0 1-5.523-5.525 5.523 5.523 0 1 1 5.523 5.524"/>
                <path fill="#FEFEFC" d="M307.194 138.395a3.564 3.564 0 0 1 3.56-3.56 3.565 3.565 0 0 1 3.562 3.56 3.565 3.565 0 0 1-3.561 3.56 3.564 3.564 0 0 1-3.56-3.56"/>
                <path fill="#3D81C3" d="M314.959 138.395a4.203 4.203 0 1 0-8.406 0 4.203 4.203 0 0 0 8.406 0m-1.285 0a2.923 2.923 0 0 1-2.918 2.918 2.923 2.923 0 0 1-2.92-2.918 2.923 2.923 0 0 1 2.92-2.918 2.923 2.923 0 0 1 2.918 2.918"/>
                <path fill="#FEFEFC" d="M186.557 14.224c0-7.135 5.805-12.94 12.939-12.94 7.135 0 12.939 5.805 12.939 12.94s-5.804 12.939-12.94 12.939c-7.133 0-12.938-5.804-12.938-12.94"/>
                <g transform="rotate(90 107.28 107.28)">
                    <mask id="b" fill="#fff">
                        <use xlink:href="#a"/>
                    </mask>
                    <path fill="#3E82C4" d="M14.224.84C6.366.84 0 7.208 0 15.061c0 7.857 6.366 14.225 14.224 14.225 7.856 0 14.224-6.368 14.224-14.225C28.448 7.21 22.08.84 14.224.84m0 2.57c6.426 0 11.654 5.227 11.654 11.653S20.65 26.718 14.224 26.718 2.57 21.488 2.57 15.062 7.798 3.41 14.224 3.41" mask="url(#b)"/>
                </g>
                <path fill="#4E7DBF" d="M500.196 539.995a4.255 4.255 0 1 1 0-8.51 4.255 4.255 0 0 1 0 8.51"/>
                <path fill="#FEFEFC" d="M54.433 14.224c0-1.4 1.14-2.54 2.539-2.54a2.543 2.543 0 0 1 2.538 2.54c0 1.399-1.14 2.539-2.538 2.539-1.4 0-2.539-1.14-2.539-2.54"/>
                <path fill="#3E82C4" d="M60.152 14.224a3.181 3.181 0 1 0-6.362 0 3.181 3.181 0 0 0 6.362 0m-1.284 0a1.9 1.9 0 0 1-1.897 1.896 1.899 1.899 0 0 1-1.895-1.896c0-1.045.85-1.897 1.895-1.897a1.9 1.9 0 0 1 1.897 1.897"/>
                <path fill="#4E7DBF" d="M146.292 392.92a8.014 8.014 0 0 1-8.016-8.014 8.012 8.012 0 0 1 8.016-8.014 8.014 8.014 0 0 1 0 16.028"/>
                <path fill="#FEFEFC" d="M106.42 570.111c0-12.31 10.014-22.325 22.325-22.325 12.31 0 22.325 10.015 22.325 22.325 0 12.311-10.015 22.326-22.325 22.326-12.311 0-22.326-10.015-22.326-22.326"/>
                <path fill="#3E82C4" d="M152.355 570.111c0-13.04-10.574-23.61-23.61-23.61-13.04 0-23.61 10.57-23.61 23.61s10.57 23.61 23.61 23.61c13.036 0 23.61-10.57 23.61-23.61m-2.57 0c0 11.602-9.439 21.04-21.04 21.04-11.602 0-21.04-9.438-21.04-21.04 0-11.601 9.438-21.04 21.04-21.04 11.601 0 21.04 9.439 21.04 21.04"/>
                <path fill="#FEFEFC" d="M182.578 436.177c0-4.153 3.378-7.531 7.53-7.531 4.155 0 7.533 3.378 7.533 7.53 0 4.154-3.378 7.532-7.532 7.532-4.153 0-7.531-3.378-7.531-7.531"/>
                <path fill="#3E82C4" d="M198.925 436.177a8.815 8.815 0 0 0-8.815-8.816 8.816 8.816 0 1 0 0 17.631 8.815 8.815 0 0 0 8.815-8.815m-2.57 0a6.253 6.253 0 0 1-6.245 6.246 6.253 6.253 0 0 1-6.248-6.246 6.253 6.253 0 0 1 6.248-6.246 6.253 6.253 0 0 1 6.246 6.246"/>
                <path fill="#FEFEFC" d="M11.416 350.39c0-8.103 6.593-14.695 14.697-14.695 8.101 0 14.694 6.592 14.694 14.695 0 8.104-6.593 14.697-14.694 14.697-8.104 0-14.697-6.593-14.697-14.697"/>
                <path fill="#3E82C4" d="M42.092 350.39c0-8.827-7.154-15.98-15.98-15.98-8.828 0-15.98 7.153-15.98 15.98 0 8.826 7.152 15.982 15.98 15.982 8.826 0 15.98-7.156 15.98-15.982m-2.57 0c0 7.395-6.016 13.412-13.41 13.412-7.395 0-13.411-6.017-13.411-13.412 0-7.395 6.016-13.41 13.41-13.41 7.395 0 13.411 6.015 13.411 13.41"/>
                <path fill="#FEFEFC" d="M63.052 254.987c0-15.499 12.61-28.108 28.108-28.108 15.498 0 28.107 12.609 28.107 28.108 0 15.498-12.609 28.107-28.107 28.107-15.499 0-28.108-12.609-28.108-28.107"/>
                <path fill="#3E82C4" d="M120.552 254.987c0-16.234-13.16-29.393-29.392-29.393-16.234 0-29.393 13.16-29.393 29.393s13.16 29.392 29.393 29.392c16.232 0 29.392-13.159 29.392-29.392m-2.57 0c0 14.79-12.032 26.822-26.822 26.822-14.791 0-26.823-12.032-26.823-26.822 0-14.791 12.032-26.823 26.823-26.823 14.79 0 26.822 12.032 26.822 26.823"/>
                <path fill="#FEFEFC" d="M203.108 344.288c0-17.27 14.05-31.32 31.32-31.32 17.269 0 31.32 14.05 31.32 31.32s-14.051 31.32-31.32 31.32c-17.27 0-31.32-14.05-31.32-31.32"/>
                <path fill="#3E82C4" d="M267.032 344.288c0-18.008-14.598-32.605-32.605-32.605-18.008 0-32.604 14.597-32.604 32.605 0 18.008 14.596 32.605 32.604 32.605 18.007 0 32.605-14.597 32.605-32.605m-2.57 0c0 16.561-13.472 30.035-30.035 30.035-16.562 0-30.034-13.474-30.034-30.035s13.472-30.035 30.034-30.035c16.563 0 30.035 13.474 30.035 30.035"/>
                <path fill="#FEFEFC" d="M141.973 506.349a4.323 4.323 0 0 1 4.318-4.319 4.323 4.323 0 0 1 4.32 4.319 4.323 4.323 0 0 1-4.32 4.318 4.323 4.323 0 0 1-4.318-4.318"/>
                <path fill="#3E82C4" d="M151.896 506.349a5.603 5.603 0 0 0-5.604-5.604 5.603 5.603 0 1 0 0 11.207 5.603 5.603 0 0 0 5.604-5.603m-2.57 0a3.037 3.037 0 0 1-3.034 3.033 3.037 3.037 0 0 1-3.035-3.033 3.037 3.037 0 0 1 3.035-3.034 3.037 3.037 0 0 1 3.034 3.034"/>
                <path fill="#FEFEFC" d="M52.345 456.558a6.437 6.437 0 0 1 6.43-6.43 6.437 6.437 0 0 1 6.43 6.43 6.437 6.437 0 0 1-6.43 6.43 6.437 6.437 0 0 1-6.43-6.43"/>
                <path fill="#3E82C4" d="M66.49 456.558a7.714 7.714 0 1 0-15.43 0 7.714 7.714 0 0 0 15.43 0m-2.57 0a5.151 5.151 0 0 1-5.146 5.145 5.151 5.151 0 0 1-5.144-5.145 5.151 5.151 0 0 1 5.144-5.144 5.151 5.151 0 0 1 5.145 5.144"/>
                <path fill="#FEFEFC" d="M98.87 458.003c0-8.237 6.701-14.937 14.938-14.937 8.236 0 14.937 6.7 14.937 14.937 0 8.236-6.701 14.937-14.937 14.937-8.237 0-14.938-6.701-14.938-14.937"/>
                <path fill="#3E82C4" d="M130.03 458.003c0-8.96-7.264-16.222-16.222-16.222-8.96 0-16.222 7.262-16.222 16.222s7.262 16.222 16.222 16.222c8.958 0 16.222-7.263 16.222-16.222m-2.57 0c0 7.527-6.125 13.652-13.652 13.652-7.527 0-13.653-6.125-13.653-13.652 0-7.527 6.126-13.652 13.653-13.652s13.652 6.125 13.652 13.652"/>
                <path fill="#FEFEFC" d="M197.648 517.27c0-17.713 14.41-32.124 32.123-32.124 17.712 0 32.123 14.41 32.123 32.123 0 17.713-14.41 32.123-32.123 32.123-17.713 0-32.123-14.41-32.123-32.123"/>
                <path fill="#3E82C4" d="M263.179 517.27c0-18.452-14.96-33.408-33.408-33.408-18.452 0-33.408 14.956-33.408 33.407 0 18.452 14.956 33.408 33.408 33.408 18.449 0 33.408-14.956 33.408-33.408m-2.57 0c0 17.004-13.834 30.838-30.838 30.838-17.005 0-30.838-13.834-30.838-30.838 0-17.003 13.833-30.838 30.838-30.838 17.004 0 30.838 13.835 30.838 30.838"/>
                <path fill="#FEFEFC" d="M31.568 603.038a6.437 6.437 0 0 1 6.43-6.43 6.437 6.437 0 0 1 6.43 6.43 6.437 6.437 0 0 1-6.43 6.43 6.437 6.437 0 0 1-6.43-6.43"/>
                <path fill="#3E82C4" d="M45.712 603.038a7.714 7.714 0 1 0-15.429 0 7.714 7.714 0 0 0 15.43 0m-2.57 0a5.151 5.151 0 0 1-5.145 5.145 5.151 5.151 0 0 1-5.145-5.145 5.151 5.151 0 0 1 5.145-5.144 5.151 5.151 0 0 1 5.144 5.144"/>
                <path fill="#FEFEFC" d="M54.433 359.548c0-1.4 1.14-2.54 2.539-2.54a2.543 2.543 0 0 1 2.538 2.54c0 1.399-1.14 2.539-2.538 2.539-1.4 0-2.539-1.14-2.539-2.54"/>
                <path fill="#3E82C4" d="M60.152 359.548a3.181 3.181 0 1 0-6.362 0 3.181 3.181 0 0 0 6.362 0m-1.284 0a1.9 1.9 0 0 1-1.897 1.896 1.899 1.899 0 0 1-1.895-1.896c0-1.045.85-1.897 1.895-1.897a1.9 1.9 0 0 1 1.897 1.897"/>
            </g>
        </g>
        <path fill="#84AED6" d="M385 290h29v-29h-29z"/>
        <path fill="#FFF" d="M402.578 285.128l2.205-1.326c.581.984 1.336 1.707 2.67 1.707 1.123 0 1.838-.582 1.838-1.386 0-.964-.735-1.305-1.973-1.868l-.677-.301c-1.954-.863-3.25-1.948-3.25-4.238 0-2.11 1.547-3.716 3.966-3.716 1.722 0 2.96.623 3.85 2.25l-2.109 1.406c-.464-.864-.967-1.205-1.741-1.205-.794 0-1.296.522-1.296 1.205 0 .843.502 1.185 1.663 1.707l.677.302c2.303 1.024 3.599 2.068 3.599 4.418 0 2.531-1.915 3.917-4.488 3.917-2.516 0-4.14-1.245-4.934-2.872m-9.578.3l2.206-1.385c.426.783.813 1.446 1.741 1.446.89 0 1.451-.361 1.451-1.767v-9.561h2.709v9.6c0 2.913-1.645 4.239-4.044 4.239-2.167 0-3.424-1.165-4.063-2.571"/>
    </g>
</svg>
