<svg id="Layer_1" data-name="Layer 1" xmlns="http://www.w3.org/2000/svg" width="44" height="44" viewBox="0 0 44 44"><defs><style>.cls-1{fill:#fff;}</style></defs><title>white_mobile icons_V1_NG_close</title><path class="cls-1" d="M22,27.26a.76.76,0,0,1-.44.69.75.75,0,0,1-.33.07.76.76,0,0,1-.49-.18l-4.19-3.47H14.33a.77.77,0,0,1-.77-.77V20.56a.77.77,0,0,1,.77-.77h2.23l4.19-3.47a.77.77,0,0,1,1.26.59Zm2.94-1.2h-.06a.76.76,0,0,1-.54-.22l-.1-.1a.77.77,0,0,1-.07-1,4.45,4.45,0,0,0-.12-5.46.77.77,0,0,1,.05-1l.1-.1a.75.75,0,0,1,.58-.22.77.77,0,0,1,.56.28,6.13,6.13,0,0,1,.16,7.55.76.76,0,0,1-.56.31Zm3.17,2.37a.77.77,0,0,1-.55.27h0a.77.77,0,0,1-.54-.22l-.1-.1a.77.77,0,0,1,0-1,8.16,8.16,0,0,0-.13-10.67.77.77,0,0,1,0-1l.1-.1a.75.75,0,0,1,.56-.23.77.77,0,0,1,.55.26,9.84,9.84,0,0,1,.16,12.87Zm0,0"/></svg>