<svg id="svg" version="1.1" xmlns="http://www.w3.org/2000/svg" xmlns:xlink="http://www.w3.org/1999/xlink" width="400" height="266.6666666666667" viewBox="0, 0, 400,266.6666666666667"><g id="svgg"><path id="path0" d="M147.167 54.256 C 147.029 54.284,146.204 54.392,145.333 54.495 C 141.182 54.989,136.365 56.414,132.750 58.219 C 132.567 58.310,132.267 58.460,132.083 58.552 C 131.900 58.644,131.637 58.782,131.500 58.860 C 131.362 58.939,131.063 59.093,130.833 59.203 C 130.604 59.313,129.980 59.688,129.447 60.035 C 128.913 60.382,128.441 60.667,128.398 60.667 C 128.354 60.667,127.913 60.967,127.417 61.333 C 126.920 61.700,126.461 62.000,126.396 62.000 C 126.331 62.000,126.159 62.110,126.014 62.244 C 125.869 62.379,124.958 63.160,123.989 63.981 C 121.547 66.051,118.789 69.020,117.236 71.251 C 115.318 74.008,114.988 74.569,113.558 77.500 C 112.333 80.013,112.000 80.751,112.000 80.954 C 112.000 81.047,111.859 81.488,111.686 81.936 C 111.381 82.728,110.949 84.213,110.430 86.250 C 108.936 92.119,109.088 99.183,110.864 106.392 C 111.063 107.200,109.418 107.511,124.417 103.834 C 126.250 103.384,128.973 102.721,130.469 102.359 C 133.744 101.567,133.477 101.825,133.012 99.896 C 132.253 96.745,132.628 91.375,133.761 89.204 C 133.891 88.954,133.998 88.658,133.999 88.545 C 134.001 88.172,135.734 85.124,136.324 84.456 C 136.466 84.294,136.921 83.768,137.333 83.286 C 142.723 76.988,152.076 75.116,159.547 78.840 C 162.971 80.546,166.476 83.808,167.757 86.481 C 168.096 87.188,168.359 87.314,168.756 86.958 C 169.083 86.665,169.241 86.542,170.833 85.340 C 171.612 84.751,172.588 84.014,173.000 83.701 C 176.962 80.696,183.029 76.142,183.646 75.711 C 184.070 75.414,184.712 74.920,185.073 74.612 L 185.729 74.051 185.446 73.484 C 183.421 69.429,176.768 62.887,171.667 59.934 C 170.099 59.027,165.168 56.667,164.841 56.667 C 164.751 56.667,164.432 56.560,164.131 56.429 C 160.618 54.902,150.415 53.595,147.167 54.256 M271.917 87.780 C 271.387 87.899,268.844 88.494,267.750 88.754 C 267.200 88.885,264.462 89.521,261.667 90.167 C 258.871 90.813,256.133 91.450,255.583 91.583 C 255.033 91.715,253.721 92.020,252.667 92.259 L 250.750 92.694 250.745 95.805 C 250.740 99.765,249.971 102.630,248.122 105.577 C 247.781 106.122,246.628 107.733,246.389 108.000 C 245.721 108.746,244.968 109.482,244.342 110.000 C 243.954 110.321,243.542 110.672,243.426 110.779 C 239.100 114.801,230.043 115.828,224.250 112.955 C 223.883 112.774,223.452 112.559,223.292 112.479 C 220.830 111.249,217.921 108.589,216.253 106.042 C 215.685 105.175,215.571 105.170,214.557 105.968 C 214.113 106.317,212.625 107.456,211.250 108.498 C 209.875 109.540,208.725 110.454,208.694 110.530 C 208.664 110.605,208.566 110.667,208.478 110.667 C 208.330 110.667,205.929 112.503,205.319 113.082 C 205.174 113.220,204.974 113.333,204.875 113.333 C 204.776 113.333,204.669 113.395,204.639 113.471 C 204.608 113.547,203.458 114.458,202.083 115.497 C 200.708 116.535,199.246 117.652,198.833 117.978 C 198.421 118.305,198.055 118.590,198.021 118.612 C 197.987 118.634,198.137 118.871,198.354 119.139 C 198.572 119.406,198.900 119.836,199.083 120.094 C 201.557 123.573,205.743 127.553,209.460 129.959 C 209.986 130.299,210.567 130.661,210.750 130.763 C 210.933 130.864,211.421 131.146,211.833 131.389 C 213.878 132.592,217.409 134.127,219.917 134.902 C 228.918 137.685,239.687 137.193,247.833 133.628 C 249.219 133.021,252.400 131.423,252.911 131.077 C 253.189 130.888,253.529 130.689,253.667 130.635 C 255.550 129.892,264.000 122.434,264.000 121.516 C 264.000 121.431,264.070 121.336,264.155 121.306 C 264.353 121.235,266.000 119.033,266.000 118.840 C 266.000 118.760,266.064 118.669,266.142 118.639 C 266.272 118.588,266.987 117.539,267.428 116.750 C 267.530 116.567,267.787 116.117,267.998 115.750 C 268.727 114.482,269.187 113.579,269.612 112.583 C 269.847 112.033,270.141 111.358,270.265 111.083 C 270.797 109.909,271.896 106.581,272.056 105.667 C 272.095 105.438,272.241 104.800,272.380 104.250 C 273.503 99.786,273.536 87.562,272.424 87.686 C 272.328 87.697,272.100 87.739,271.917 87.780 " stroke="none" fill="#1091c7" fill-rule="evenodd"></path><path id="path1" d="M227.000 54.434 C 222.039 55.120,217.495 56.548,213.250 58.754 C 211.556 59.634,209.532 60.844,209.314 61.106 C 209.211 61.231,209.056 61.333,208.970 61.333 C 208.884 61.333,208.499 61.576,208.115 61.873 C 207.731 62.170,207.390 62.428,207.358 62.446 C 207.308 62.474,208.098 63.541,208.583 64.100 C 208.675 64.206,208.862 64.462,209.000 64.669 C 209.137 64.876,209.557 65.429,209.933 65.897 C 210.574 66.697,212.348 69.022,214.209 71.500 C 214.657 72.096,215.093 72.608,215.178 72.639 C 215.264 72.669,215.333 72.768,215.333 72.858 C 215.333 72.949,215.652 73.416,216.042 73.897 C 216.431 74.379,216.900 74.980,217.083 75.233 C 217.267 75.486,217.529 75.832,217.667 76.000 C 217.804 76.168,218.067 76.511,218.250 76.761 C 218.433 77.011,219.090 77.860,219.708 78.648 C 220.327 79.436,220.833 80.138,220.833 80.207 C 220.833 80.448,221.127 80.329,222.567 79.500 C 223.364 79.042,224.089 78.667,224.180 78.667 C 224.271 78.667,224.511 78.558,224.714 78.425 C 224.917 78.292,225.571 78.028,226.167 77.838 C 234.629 75.142,243.462 78.481,248.201 86.167 C 248.863 87.240,250.000 89.772,250.000 90.172 C 250.000 90.278,250.154 90.872,250.342 91.492 L 250.685 92.620 253.051 92.068 C 254.352 91.764,255.904 91.402,256.500 91.263 C 257.096 91.125,258.221 90.863,259.000 90.680 C 259.779 90.498,262.554 89.856,265.167 89.253 C 269.574 88.237,271.684 87.741,272.356 87.562 C 272.598 87.498,272.564 87.249,272.059 85.370 C 271.270 82.436,270.842 81.072,270.345 79.917 C 269.947 78.992,269.294 77.550,269.156 77.292 C 269.070 77.131,268.925 76.850,268.833 76.667 C 268.174 75.348,267.729 74.565,267.148 73.700 C 266.883 73.306,266.667 72.953,266.667 72.916 C 266.667 72.721,264.067 69.232,263.265 68.351 C 260.575 65.396,255.860 61.309,254.333 60.609 C 254.196 60.546,253.746 60.275,253.333 60.007 C 249.543 57.540,243.305 55.331,237.750 54.488 C 235.702 54.177,229.097 54.144,227.000 54.434 M132.333 102.000 C 131.737 102.161,129.938 102.609,128.333 102.995 C 119.012 105.238,111.307 107.137,111.236 107.209 C 111.127 107.318,111.825 109.595,112.322 110.750 C 112.787 111.832,113.377 113.141,113.566 113.512 C 114.146 114.652,115.575 117.264,115.701 117.414 C 115.778 117.507,116.082 117.958,116.376 118.417 C 116.670 118.875,116.969 119.325,117.040 119.417 C 119.456 122.534,121.944 125.258,123.657 126.667 C 124.048 126.987,124.491 127.367,124.642 127.511 C 125.140 127.984,127.001 129.333,127.155 129.333 C 127.238 129.333,127.331 129.393,127.361 129.465 C 127.417 129.597,128.954 130.667,129.088 130.667 C 129.128 130.667,129.555 130.915,130.038 131.218 C 130.875 131.742,133.221 132.922,134.833 133.628 C 144.022 137.651,157.268 137.674,166.250 133.682 C 167.571 133.094,171.259 131.264,171.667 130.993 C 171.896 130.840,172.646 130.349,173.333 129.900 C 174.021 129.451,174.658 129.027,174.750 128.957 C 176.865 127.347,176.857 127.357,176.333 126.833 C 176.150 126.650,176.000 126.457,176.000 126.405 C 176.000 126.353,175.681 125.914,175.292 125.430 C 174.368 124.282,173.973 123.770,173.667 123.329 C 173.529 123.131,173.304 122.833,173.167 122.667 C 173.029 122.501,172.392 121.675,171.750 120.833 C 171.108 119.991,169.999 118.540,169.285 117.609 C 168.570 116.678,167.843 115.729,167.668 115.500 C 167.493 115.271,166.877 114.472,166.300 113.725 C 165.722 112.978,165.137 112.200,165.000 111.996 C 164.862 111.793,164.670 111.541,164.572 111.438 C 164.474 111.335,164.260 111.044,164.095 110.792 C 163.701 110.189,163.649 110.199,162.357 111.132 C 161.364 111.849,159.530 112.826,157.792 113.563 C 151.678 116.156,143.274 114.273,138.167 109.166 C 136.219 107.218,135.360 105.906,133.735 102.395 L 133.417 101.706 132.333 102.000 " stroke="none" fill="#eb8c2c" fill-rule="evenodd"></path><path id="path2" d="M12.227 180.149 C 11.940 180.223,11.471 180.450,11.186 180.653 L 10.667 181.023 10.667 196.261 C 10.667 211.107,10.675 211.508,10.989 211.823 C 11.920 212.753,16.821 212.736,17.538 211.800 C 17.559 211.772,17.615 207.512,17.663 202.333 L 17.750 192.917 18.163 193.583 C 18.390 193.950,18.615 194.325,18.663 194.417 C 18.711 194.508,18.975 194.913,19.250 195.317 C 19.990 196.402,19.998 196.414,21.122 198.148 C 21.694 199.029,22.236 199.862,22.327 200.000 C 22.418 200.137,22.982 200.988,23.580 201.890 C 24.178 202.793,24.667 203.558,24.667 203.590 C 24.667 203.676,25.713 205.234,25.837 205.333 C 25.894 205.379,25.990 205.529,26.051 205.667 C 26.111 205.804,26.688 206.704,27.333 207.667 C 27.978 208.629,28.557 209.529,28.620 209.667 C 28.762 209.977,29.557 211.130,29.954 211.600 C 30.777 212.575,34.952 212.909,36.506 212.125 L 37.250 211.750 37.250 196.266 L 37.250 180.783 36.583 180.433 C 35.195 179.705,31.116 180.003,30.552 180.874 C 30.478 180.989,30.379 185.208,30.333 190.250 C 30.276 196.525,30.197 199.312,30.083 199.083 C 29.992 198.900,29.548 198.188,29.098 197.500 C 26.540 193.595,26.731 193.894,26.011 192.682 C 25.788 192.307,25.544 192.000,25.469 192.000 C 25.395 192.000,25.333 191.922,25.333 191.827 C 25.333 191.731,25.193 191.450,25.022 191.202 C 24.316 190.178,22.667 187.653,22.667 187.596 C 22.667 187.534,21.167 185.222,19.980 183.453 C 19.624 182.923,19.333 182.458,19.333 182.420 C 19.333 182.077,18.169 180.755,17.610 180.465 C 16.857 180.073,13.331 179.866,12.227 180.149 M122.687 180.192 C 122.377 180.281,121.945 180.471,121.727 180.613 L 121.332 180.873 121.374 196.311 L 121.417 211.750 122.160 212.125 C 123.767 212.935,127.944 212.539,128.487 211.525 C 128.606 211.302,128.667 209.165,128.667 205.178 L 128.667 199.167 134.665 199.167 L 140.663 199.167 140.706 205.458 L 140.750 211.750 141.494 212.125 C 142.898 212.833,146.698 212.620,147.625 211.781 L 148.000 211.442 148.000 196.296 L 148.000 181.151 147.579 180.761 C 146.491 179.753,142.071 179.704,141.014 180.689 C 140.675 181.006,140.667 181.148,140.667 186.923 L 140.667 192.833 134.667 192.833 L 128.667 192.833 128.667 186.992 L 128.667 181.151 128.246 180.761 C 127.486 180.057,124.293 179.730,122.687 180.192 M235.353 180.184 C 235.043 180.278,234.612 180.471,234.394 180.613 L 233.998 180.873 234.041 196.311 L 234.083 211.750 234.833 212.135 C 235.700 212.580,239.316 212.611,240.190 212.180 C 240.995 211.783,240.999 211.735,241.014 201.700 C 241.026 193.230,241.053 192.302,241.274 192.750 C 241.410 193.025,241.701 193.550,241.921 193.917 C 242.140 194.283,242.460 194.846,242.632 195.167 C 242.803 195.487,243.117 196.050,243.330 196.417 C 243.542 196.783,243.941 197.496,244.216 198.000 C 244.491 198.504,244.993 199.404,245.333 200.000 C 246.049 201.255,246.948 202.884,247.286 203.538 C 247.783 204.501,248.208 204.667,250.180 204.667 L 251.981 204.667 252.503 204.042 C 252.790 203.698,253.308 202.892,253.654 202.250 C 254.620 200.461,255.322 199.188,256.000 198.000 C 256.340 197.404,256.843 196.504,257.118 196.000 C 257.393 195.496,257.791 194.783,258.003 194.417 C 258.214 194.050,258.499 193.525,258.636 193.250 C 259.248 192.015,259.248 192.016,259.333 202.016 L 259.417 211.750 260.167 212.135 C 261.668 212.906,265.719 212.499,266.159 211.534 C 266.388 211.031,266.402 181.704,266.174 181.102 C 265.855 180.263,265.177 180.083,262.333 180.083 C 259.343 180.083,258.627 180.311,257.996 181.461 C 257.808 181.803,257.477 182.383,257.259 182.750 C 256.770 183.576,256.515 184.021,255.922 185.083 C 255.210 186.357,254.280 187.983,253.982 188.475 C 253.835 188.718,253.548 189.217,253.346 189.583 C 253.144 189.950,252.332 191.385,251.543 192.771 L 250.108 195.293 249.761 194.771 C 249.570 194.485,249.319 194.063,249.203 193.833 C 249.088 193.604,248.811 193.117,248.588 192.750 C 248.365 192.383,248.129 191.971,248.064 191.833 C 247.999 191.696,247.520 190.833,246.998 189.917 C 246.477 189.000,245.825 187.838,245.550 187.333 C 245.274 186.829,244.902 186.154,244.723 185.833 C 244.544 185.512,243.839 184.250,243.157 183.027 C 241.568 180.178,241.457 180.112,238.167 180.054 C 236.929 180.032,235.663 180.091,235.353 180.184 M282.583 180.147 C 281.814 180.411,281.356 180.729,281.266 181.062 C 281.104 181.668,281.155 211.115,281.319 211.547 C 281.842 212.922,287.691 212.926,288.317 211.552 C 288.695 210.724,288.561 181.290,288.178 180.802 C 287.627 180.102,283.967 179.674,282.583 180.147 M304.800 180.190 C 304.461 180.285,303.993 180.540,303.759 180.757 L 303.333 181.151 303.339 196.284 C 303.343 208.575,303.385 211.471,303.565 211.707 C 304.523 212.970,309.830 212.740,310.335 211.413 C 310.437 211.145,310.500 207.548,310.500 202.031 L 310.500 193.083 312.250 195.723 C 313.213 197.174,314.000 198.384,314.000 198.411 C 314.000 198.452,315.828 201.264,316.333 202.000 C 316.876 202.790,318.667 205.549,318.667 205.595 C 318.667 205.718,319.746 207.254,319.868 207.306 C 319.941 207.336,320.000 207.424,320.000 207.502 C 320.000 207.579,320.386 208.229,320.858 208.946 C 321.330 209.663,321.964 210.628,322.267 211.089 C 323.215 212.533,327.184 213.128,329.173 212.125 L 329.917 211.750 329.917 196.266 L 329.917 180.783 329.250 180.433 C 328.422 179.999,324.969 179.921,324.034 180.315 C 322.980 180.760,323.001 180.563,322.995 190.450 C 322.991 197.264,322.944 199.337,322.799 199.083 C 322.694 198.900,322.191 198.112,321.681 197.333 C 321.170 196.554,320.677 195.798,320.585 195.653 C 319.866 194.526,319.664 194.225,319.510 194.049 C 319.413 193.938,319.333 193.804,319.333 193.750 C 319.333 193.697,319.193 193.450,319.022 193.202 C 318.297 192.150,316.667 189.652,316.667 189.593 C 316.667 189.557,316.303 188.978,315.858 188.306 C 315.078 187.128,313.598 184.864,313.251 184.320 C 312.536 183.198,312.331 182.892,312.177 182.715 C 312.079 182.605,311.995 182.455,311.989 182.382 C 311.956 181.992,310.811 180.705,310.242 180.418 C 309.479 180.034,305.898 179.884,304.800 180.190 M53.233 180.483 C 52.488 180.937,52.504 180.600,52.502 196.185 C 52.500 211.794,52.497 211.737,53.182 212.091 C 54.043 212.537,71.729 212.443,72.215 211.991 C 72.845 211.405,72.869 207.433,72.248 206.694 L 71.804 206.167 65.819 206.167 L 59.833 206.167 59.833 202.583 L 59.833 199.000 65.142 199.000 L 70.451 199.000 70.892 198.591 C 71.548 197.983,71.578 193.969,70.931 193.218 L 70.529 192.750 65.181 192.702 L 59.833 192.653 59.833 189.583 L 59.833 186.512 65.819 186.464 L 71.806 186.417 72.149 186.020 C 72.872 185.187,72.893 181.355,72.179 180.596 L 71.775 180.167 62.763 180.167 C 54.216 180.168,53.723 180.184,53.233 180.483 M84.392 180.411 C 83.727 180.876,83.450 183.304,83.848 185.162 C 84.126 186.459,84.273 186.500,88.658 186.500 L 92.333 186.500 92.333 198.969 C 92.333 213.094,92.215 211.943,93.703 212.343 C 94.649 212.598,98.267 212.463,98.867 212.151 C 99.674 211.731,99.667 211.854,99.667 198.825 L 99.667 186.500 103.349 186.500 C 108.397 186.500,108.275 186.598,108.140 182.652 C 108.045 179.878,109.452 180.167,96.019 180.167 C 86.373 180.167,84.690 180.202,84.392 180.411 M163.792 180.459 C 163.131 180.869,163.149 180.371,163.202 196.723 L 163.250 211.696 163.645 212.016 C 164.026 212.324,164.383 212.335,173.294 212.293 L 182.547 212.250 182.899 211.779 C 183.426 211.073,183.426 207.427,182.899 206.721 L 182.547 206.250 176.440 206.206 L 170.333 206.163 170.333 202.581 L 170.333 199.000 175.721 199.000 L 181.109 199.000 181.513 198.570 C 182.082 197.964,182.134 194.042,181.583 193.303 C 181.111 192.670,181.123 192.671,175.458 192.669 L 170.333 192.667 170.333 189.589 L 170.333 186.512 176.329 186.464 C 183.634 186.406,183.053 186.632,183.140 183.811 C 183.207 181.641,183.116 181.021,182.658 180.529 L 182.320 180.167 173.285 180.171 C 165.069 180.175,164.208 180.201,163.792 180.459 M197.799 180.425 C 197.009 180.854,197.002 180.995,197.001 196.534 C 197.000 212.202,196.975 211.753,197.885 212.172 C 198.593 212.498,202.681 212.516,203.437 212.197 C 204.306 211.830,204.333 211.625,204.333 205.575 L 204.333 200.000 206.125 200.001 C 208.850 200.002,209.634 200.641,210.979 203.958 C 211.574 205.427,212.025 206.547,212.336 207.333 C 212.766 208.417,213.499 210.196,213.675 210.583 C 213.758 210.767,213.903 211.127,213.996 211.384 C 214.317 212.270,215.327 212.540,218.059 212.472 C 221.531 212.385,222.012 211.939,221.047 209.705 C 220.707 208.921,220.263 207.839,219.628 206.250 C 219.444 205.792,219.144 205.042,218.961 204.583 C 218.778 204.125,218.478 203.375,218.294 202.917 C 217.466 200.845,217.267 200.370,216.937 199.667 C 216.254 198.214,214.777 196.333,214.318 196.333 C 214.224 196.333,214.193 196.258,214.250 196.167 C 214.307 196.075,214.472 196.000,214.618 196.000 C 214.763 196.000,215.278 195.737,215.763 195.415 C 221.300 191.740,220.440 183.563,214.262 181.145 C 211.854 180.203,199.226 179.650,197.799 180.425 M345.875 180.519 L 345.333 180.866 345.336 196.225 C 345.337 204.672,345.394 211.658,345.461 211.750 C 345.863 212.297,346.321 212.333,352.833 212.333 C 359.478 212.333,361.865 212.160,362.983 211.598 C 363.222 211.478,363.610 211.334,363.845 211.278 C 365.292 210.932,369.333 207.722,369.333 206.919 C 369.333 206.780,369.390 206.666,369.458 206.665 C 369.870 206.661,371.146 203.439,371.648 201.135 C 372.102 199.051,372.151 193.780,371.732 191.917 C 371.588 191.275,371.405 190.432,371.324 190.043 C 370.513 186.132,367.406 182.597,363.500 181.141 C 360.762 180.121,347.242 179.644,345.875 180.519 M381.195 180.605 C 377.269 181.671,375.490 186.726,377.875 190.034 C 378.381 190.735,378.930 191.333,379.068 191.333 C 379.130 191.333,379.326 191.469,379.504 191.635 C 382.118 194.070,387.638 192.157,388.789 188.418 C 389.539 185.984,387.901 181.395,386.263 181.339 C 386.179 181.336,385.980 181.216,385.821 181.072 C 385.105 180.425,382.739 180.186,381.195 180.605 M384.142 181.908 C 384.632 182.039,385.163 182.263,385.322 182.406 C 385.480 182.549,385.659 182.667,385.720 182.667 C 386.319 182.667,387.530 184.849,387.635 186.119 C 388.002 190.548,382.778 192.979,379.580 189.867 C 376.159 186.538,379.518 180.677,384.142 181.908 M380.778 183.111 C 380.717 183.172,380.667 184.708,380.667 186.525 L 380.667 189.827 381.083 189.932 C 382.109 190.189,382.333 189.946,382.333 188.580 C 382.333 187.371,382.346 187.333,382.738 187.333 C 383.132 187.333,384.000 188.776,384.000 189.431 C 384.000 189.907,385.270 190.193,385.825 189.842 C 386.078 189.682,386.071 189.658,384.974 187.186 C 384.651 186.458,384.651 186.455,384.992 186.092 C 385.449 185.606,385.479 184.017,385.039 183.619 C 384.501 183.132,381.156 182.733,380.778 183.111 M383.601 184.904 C 383.768 185.338,383.356 185.833,382.827 185.833 C 382.374 185.833,382.333 185.785,382.333 185.250 C 382.333 184.617,383.382 184.331,383.601 184.904 M210.486 187.073 C 212.345 188.362,212.349 191.128,210.495 192.715 C 209.654 193.435,209.330 193.500,206.563 193.500 L 204.333 193.500 204.333 189.986 L 204.333 186.471 207.056 186.527 C 209.758 186.583,209.785 186.587,210.486 187.073 M360.448 187.063 C 363.268 188.567,364.583 191.490,364.583 196.250 C 364.583 199.968,363.716 202.815,362.125 204.317 C 360.503 205.848,359.896 206.027,355.963 206.129 L 352.667 206.215 352.667 196.339 L 352.667 186.462 356.125 186.532 C 359.521 186.600,359.599 186.610,360.448 187.063 " stroke="none" fill="#040404" fill-rule="evenodd"></path><path id="path3" d="M119.583 105.000 C 119.159 105.183,119.597 105.183,120.167 105.000 C 120.502 104.893,120.518 104.866,120.250 104.862 C 120.067 104.859,119.767 104.921,119.583 105.000 " stroke="none" fill="#647070" fill-rule="evenodd"></path><path id="path4" d="M269.000 88.333 C 268.670 88.439,268.653 88.467,268.917 88.467 C 269.100 88.467,269.438 88.407,269.667 88.333 C 269.997 88.228,270.014 88.200,269.750 88.200 C 269.567 88.200,269.229 88.260,269.000 88.333 M254.667 91.667 C 254.337 91.772,254.319 91.800,254.583 91.800 C 254.767 91.800,255.104 91.740,255.333 91.667 C 255.663 91.561,255.681 91.533,255.417 91.533 C 255.233 91.533,254.896 91.593,254.667 91.667 " stroke="none" fill="#9ca484" fill-rule="evenodd"></path></g></svg>